<svg xmlns="http://www.w3.org/2000/svg" xmlns:xlink="http://www.w3.org/1999/xlink" viewBox="0 0 214.09 301.38"><defs><style>.cls-1{fill:#e4f2fc;}.cls-2{fill:url(#linear-gradient);}.cls-3{fill:url(#linear-gradient-2);}.cls-4{fill:url(#linear-gradient-3);}.cls-5{fill:url(#linear-gradient-4);}.cls-6{fill:#03002a;}.cls-7{fill:url(#linear-gradient-5);}</style><linearGradient id="linear-gradient" x1="-7.95" y1="125.55" x2="19.18" y2="58.41" gradientUnits="userSpaceOnUse"><stop offset="0" stop-color="#fff"/><stop offset="1" stop-color="#03002a"/><stop offset="1"/></linearGradient><linearGradient id="linear-gradient-2" x1="56.44" y1="131.29" x2="73.68" y2="88.63" xlink:href="#linear-gradient"/><linearGradient id="linear-gradient-3" x1="85.07" y1="151.18" x2="106.97" y2="97.01" xlink:href="#linear-gradient"/><linearGradient id="linear-gradient-4" x1="147.75" y1="181.49" x2="180.67" y2="100.06" xlink:href="#linear-gradient"/><linearGradient id="linear-gradient-5" x1="45.25" y1="314.32" x2="106.13" y2="122.03" xlink:href="#linear-gradient"/></defs><title>vanillish</title><g id="Layer_2" data-name="Layer 2"><g id="Layer_1-2" data-name="Layer 1"><path class="cls-1" d="M102.42.17c-1.06-.08-2.61.25-5.16,2.92a21.25,21.25,0,0,0-6.37,12.83,13.69,13.69,0,0,0,1.2,7.72c.56,1.08,1.4,2.68,2.92,3,1.84.41,3.59-1.24,5.12-2.71a22.65,22.65,0,0,0,5.79-10,19.09,19.09,0,0,0,.93-7.77c-.37-3.57-1.66-4.71-2-5A4.53,4.53,0,0,0,102.42.17Z"/><path class="cls-1" d="M132.41,6.54c-2.74-.17-4.8,1.69-5.63,2.45-2.49,2.26-3.28,5-4.07,7.93-.72,2.65-2.3,8.47.37,13.4,1.21,2.25,2.43,2.69,2.86,2.82,1.81.51,3.56-.64,4.54-1.31,3.54-2.4,4.79-6.23,5.64-8.81a24.9,24.9,0,0,0,1-10.22c-.18-2.83-.65-4.28-1.78-5.22A5,5,0,0,0,132.41,6.54Z"/><path class="cls-1" d="M74.07,31.26c3.16,2.34,6.83,3.94,10.08,6.15C90,41.4,96.58,42.83,107,45.1c7.71,1.68,14,3.07,22.39,2.56,8.13-.48,12.2-.73,16-2.3a19.52,19.52,0,0,1,6.75-1.54,9.63,9.63,0,0,1,6,1.11,8.69,8.69,0,0,1,3.42,5c1.5,5.14-1,11.38-5.39,14.87a17.09,17.09,0,0,1-10.51,3.42c-2.41,0-7.23.12-10.25-1.71a4.87,4.87,0,0,0-3-.86,5,5,0,0,0-2.39,1c-2.83,1.9-2.81,3.15-4.45,3.84-2,.86-4.27-.15-4.87-.42a12.42,12.42,0,0,1-4.7-4.53c-.87-1.29-1.19-2.14-2.3-2.74a4.94,4.94,0,0,0-3-.42c-4.25.54-23.28-2.17-38-8.72-6.4-2.84-10.14-5.59-12.22-9.65A12,12,0,0,1,59,36.81a9.52,9.52,0,0,1,3.59-6.58,9,9,0,0,1,6.06-1.62C71,28.88,72.56,30.13,74.07,31.26Z"/><path class="cls-2" d="M2.05,29.51a10,10,0,0,0-2,6.16C0,38,.41,61,7.7,73.83a14.73,14.73,0,0,0,5.82,6.07,13.4,13.4,0,0,0,3.25,1.2A18.66,18.66,0,0,0,28.06,80c1.55-.62,3.29-1.81,6.76-4.2,7.31-5,9.49-7.8,10.69-10.35.4-.84.7-1.68.77-1.88a25.61,25.61,0,0,0,1.29-7.87c.09-3.42.11-5.16-1-7a8.39,8.39,0,0,0-1.88-2.23A90.13,90.13,0,0,0,19.42,31.31c-5.13-1.84-8.83-2.65-13.09-2.4A27.94,27.94,0,0,0,2.05,29.51Z"/><path class="cls-3" d="M77.86,71A36.48,36.48,0,0,0,58.27,85.56,34.35,34.35,0,0,0,69.74,105a35.13,35.13,0,0,0,14.69-7.69,34.18,34.18,0,0,0,4.2-4.48A46.39,46.39,0,0,0,77.86,71Z"/><path class="cls-4" d="M110.73,77.72A37.45,37.45,0,0,1,124.3,99a38.19,38.19,0,0,1-22.38,14.4,68.45,68.45,0,0,1-6-8.39,67.59,67.59,0,0,1-5.59-11.61,40.72,40.72,0,0,1,20.42-15.67Z"/><path class="cls-5" d="M166.23,76.21a28.7,28.7,0,0,0-6.84,6.33,28.33,28.33,0,0,0-3.25,5.3,42.52,42.52,0,0,0-1.2,17.1,47.87,47.87,0,0,0,8.55,8.54c2.69,2.07,4.84,3.73,7.7,4.62,5.47,1.7,10.44-.42,15.9-2.74,4.75-2,9.78-6.24,19.83-14.7,0,0,5.32-4.48,6.84-9.74a7.42,7.42,0,0,0,.17-3.76,8,8,0,0,0-1.88-3.25c-6.19-6.46-21.89-8-21.89-8A106.31,106.31,0,0,0,166.23,76.21Z"/><path class="cls-6" d="M68.23,0a10.73,10.73,0,0,1,3.7,4.11,11,11,0,0,1,.86,7.35,19.77,19.77,0,0,1-4.22,3.19,19.4,19.4,0,0,1-6.67,2.28,25.75,25.75,0,0,1-3-4.84,26,26,0,0,1-1.82-5.25A22,22,0,0,1,68.23,0Z"/><path class="cls-6" d="M167,19a30.26,30.26,0,0,1,2.79,5,30.69,30.69,0,0,1,2.14,7.21,28.22,28.22,0,0,1-4.5,3.63,28.45,28.45,0,0,1-6.28,3,20.57,20.57,0,0,1-1.83-1.8,21.64,21.64,0,0,1-4.73-8.93A17.56,17.56,0,0,1,167,19Z"/><path class="cls-7" d="M56.49,301.34a7.74,7.74,0,0,0,2.43-.18,9,9,0,0,0,4-2.55c17-18.63,39-61.69,39-61.69,8.47-16.57,10.6-19,18.06-34.86,4.56-9.69,8.16-18.11,10.83-24.64a35.21,35.21,0,0,0,16.12-1.5,17.08,17.08,0,0,0,9.52,12.41c1.15-1.8,2.31-3.71,3.46-5.74,1.34-2.36,2.54-4.65,3.61-6.85a64.22,64.22,0,0,0,10.46-4.5,76.14,76.14,0,0,0,11.2-7.66c8.73-6.69,10.63-9.65,11.5-11.2a26.26,26.26,0,0,0,2.28-5.45,27,27,0,0,1-6,1.18c-2.64.2-5.07.38-7.74-.74a12.76,12.76,0,0,1-5.63-4.82,52.39,52.39,0,0,1-61.68-15.75,53.68,53.68,0,0,1-22.84,10A52.86,52.86,0,0,1,66.64,134a42.31,42.31,0,0,1-13.36-8,41.32,41.32,0,0,1-9.54-12.68c-1.69,1.74-11.93,11.94-26.2,10.59a29,29,0,0,1-11.48-3.65,28.53,28.53,0,0,0,3,7A28.82,28.82,0,0,0,13,132.31,124,124,0,0,0,11.9,152c.16,6.75.35,15.32,3.16,16,1.28.31,2.6-1.14,7.66-7.31,3.61-4.41,6.7-8.25,9.12-11.3a14.45,14.45,0,0,0,3.65,4.35A14.87,14.87,0,0,0,39.28,156c-.41,10.79-.61,26,.47,44.3.73,12.36,1.07,9.62,2.59,29.06,1.08,13.65,3.07,27.67,7,55.7C49.39,285,51.63,300.76,56.49,301.34Z"/></g></g></svg>